<mxfile host="app.diagrams.net" agent="Mozilla/5.0 (Windows NT 10.0; Win64; x64) AppleWebKit/537.36 (KHTML, like Gecko) Chrome/140.0.0.0 Safari/537.36" version="28.2.5">
  <diagram name="Page-1" id="2YBvvXClWsGukQMizWep">
    <mxGraphModel dx="935" dy="958" grid="1" gridSize="10" guides="1" tooltips="1" connect="1" arrows="1" fold="1" page="1" pageScale="1" pageWidth="850" pageHeight="1100" math="0" shadow="0">
      <root>
        <mxCell id="0" />
        <mxCell id="1" parent="0" />
        <mxCell id="aM9ryv3xv72pqoxQDRHE-5" value="BDD" style="shape=umlLifeline;perimeter=lifelinePerimeter;whiteSpace=wrap;html=1;container=0;dropTarget=0;collapsible=0;recursiveResize=0;outlineConnect=0;portConstraint=eastwest;newEdgeStyle={&quot;edgeStyle&quot;:&quot;elbowEdgeStyle&quot;,&quot;elbow&quot;:&quot;vertical&quot;,&quot;curved&quot;:0,&quot;rounded&quot;:0};" parent="1" vertex="1">
          <mxGeometry x="580" y="40" width="100" height="2000" as="geometry" />
        </mxCell>
        <mxCell id="bF0VFyv6rNyYzEHwLeg6-15" value="" style="html=1;points=[[0,0,0,0,5],[0,1,0,0,-5],[1,0,0,0,5],[1,1,0,0,-5]];perimeter=orthogonalPerimeter;outlineConnect=0;targetShapes=umlLifeline;portConstraint=eastwest;newEdgeStyle={&quot;curved&quot;:0,&quot;rounded&quot;:0};fillColor=light-dark(#FFFFFF,#999999);" vertex="1" parent="aM9ryv3xv72pqoxQDRHE-5">
          <mxGeometry x="45" y="140" width="10" height="150" as="geometry" />
        </mxCell>
        <mxCell id="bF0VFyv6rNyYzEHwLeg6-35" value="" style="html=1;points=[[0,0,0,0,5],[0,1,0,0,-5],[1,0,0,0,5],[1,1,0,0,-5]];perimeter=orthogonalPerimeter;outlineConnect=0;targetShapes=umlLifeline;portConstraint=eastwest;newEdgeStyle={&quot;curved&quot;:0,&quot;rounded&quot;:0};fillColor=light-dark(#FFFFFF,#999999);" vertex="1" parent="aM9ryv3xv72pqoxQDRHE-5">
          <mxGeometry x="45" y="440" width="10" height="80" as="geometry" />
        </mxCell>
        <mxCell id="bF0VFyv6rNyYzEHwLeg6-95" value="" style="html=1;points=[[0,0,0,0,5],[0,1,0,0,-5],[1,0,0,0,5],[1,1,0,0,-5]];perimeter=orthogonalPerimeter;outlineConnect=0;targetShapes=umlLifeline;portConstraint=eastwest;newEdgeStyle={&quot;curved&quot;:0,&quot;rounded&quot;:0};fillColor=light-dark(#FFFFFF,#999999);" vertex="1" parent="1">
          <mxGeometry x="625" y="748" width="10" height="1122" as="geometry" />
        </mxCell>
        <mxCell id="aM9ryv3xv72pqoxQDRHE-1" value="Sistema CanchApp" style="shape=umlLifeline;perimeter=lifelinePerimeter;whiteSpace=wrap;html=1;container=0;dropTarget=0;collapsible=0;recursiveResize=0;outlineConnect=0;portConstraint=eastwest;newEdgeStyle={&quot;edgeStyle&quot;:&quot;elbowEdgeStyle&quot;,&quot;elbow&quot;:&quot;vertical&quot;,&quot;curved&quot;:0,&quot;rounded&quot;:0};" parent="1" vertex="1">
          <mxGeometry x="325" y="40" width="100" height="2000" as="geometry" />
        </mxCell>
        <mxCell id="bF0VFyv6rNyYzEHwLeg6-13" value="" style="html=1;points=[[0,0,0,0,5],[0,1,0,0,-5],[1,0,0,0,5],[1,1,0,0,-5]];perimeter=orthogonalPerimeter;outlineConnect=0;targetShapes=umlLifeline;portConstraint=eastwest;newEdgeStyle={&quot;curved&quot;:0,&quot;rounded&quot;:0};fillColor=light-dark(#FFFFFF,#999999);" vertex="1" parent="aM9ryv3xv72pqoxQDRHE-1">
          <mxGeometry x="45" y="130" width="10" height="210" as="geometry" />
        </mxCell>
        <mxCell id="bF0VFyv6rNyYzEHwLeg6-27" value="" style="html=1;points=[[0,0,0,0,5],[0,1,0,0,-5],[1,0,0,0,5],[1,1,0,0,-5]];perimeter=orthogonalPerimeter;outlineConnect=0;targetShapes=umlLifeline;portConstraint=eastwest;newEdgeStyle={&quot;curved&quot;:0,&quot;rounded&quot;:0};fillColor=light-dark(#FFFFFF,#999999);" vertex="1" parent="aM9ryv3xv72pqoxQDRHE-1">
          <mxGeometry x="45" y="390" width="10" height="150" as="geometry" />
        </mxCell>
        <mxCell id="bF0VFyv6rNyYzEHwLeg6-94" value="" style="html=1;points=[[0,0,0,0,5],[0,1,0,0,-5],[1,0,0,0,5],[1,1,0,0,-5]];perimeter=orthogonalPerimeter;outlineConnect=0;targetShapes=umlLifeline;portConstraint=eastwest;newEdgeStyle={&quot;curved&quot;:0,&quot;rounded&quot;:0};fillColor=light-dark(#FFFFFF,#999999);" vertex="1" parent="1">
          <mxGeometry x="370" y="710" width="10" height="1160" as="geometry" />
        </mxCell>
        <mxCell id="bF0VFyv6rNyYzEHwLeg6-2" style="edgeStyle=orthogonalEdgeStyle;rounded=0;orthogonalLoop=1;jettySize=auto;html=1;curved=0;endArrow=none;endFill=0;dashed=1;" edge="1" parent="1">
          <mxGeometry relative="1" as="geometry">
            <mxPoint x="125" y="2040" as="targetPoint" />
            <mxPoint x="125" y="120" as="sourcePoint" />
          </mxGeometry>
        </mxCell>
        <mxCell id="bF0VFyv6rNyYzEHwLeg6-89" value="" style="html=1;points=[[0,0,0,0,5],[0,1,0,0,-5],[1,0,0,0,5],[1,1,0,0,-5]];perimeter=orthogonalPerimeter;outlineConnect=0;targetShapes=umlLifeline;portConstraint=eastwest;newEdgeStyle={&quot;curved&quot;:0,&quot;rounded&quot;:0};strokeColor=light-dark(#000000,#FFFFFF);fillColor=light-dark(#000000,#999999);fillStyle=auto;" vertex="1" parent="1">
          <mxGeometry x="120" y="700" width="10" height="1200" as="geometry" />
        </mxCell>
        <mxCell id="bF0VFyv6rNyYzEHwLeg6-48" value="" style="edgeStyle=none;orthogonalLoop=1;jettySize=auto;html=1;rounded=0;shadow=0;" edge="1" parent="1">
          <mxGeometry width="100" relative="1" as="geometry">
            <mxPoint x="372.40999999999997" y="930" as="sourcePoint" />
            <mxPoint x="627.5864705882353" y="930" as="targetPoint" />
            <Array as="points" />
          </mxGeometry>
        </mxCell>
        <mxCell id="bF0VFyv6rNyYzEHwLeg6-1" value="Usuario" style="shape=umlActor;verticalLabelPosition=bottom;verticalAlign=top;html=1;outlineConnect=0;" vertex="1" parent="1">
          <mxGeometry x="110" y="30" width="30" height="60" as="geometry" />
        </mxCell>
        <mxCell id="bF0VFyv6rNyYzEHwLeg6-5" style="edgeStyle=orthogonalEdgeStyle;rounded=0;orthogonalLoop=1;jettySize=auto;html=1;endArrow=none;endFill=0;dashed=1;" edge="1" parent="1">
          <mxGeometry relative="1" as="geometry">
            <mxPoint x="845" y="2040" as="targetPoint" />
            <mxPoint x="844.5" y="130" as="sourcePoint" />
          </mxGeometry>
        </mxCell>
        <mxCell id="bF0VFyv6rNyYzEHwLeg6-3" value="Dueño" style="shape=umlActor;verticalLabelPosition=bottom;verticalAlign=top;html=1;outlineConnect=0;" vertex="1" parent="1">
          <mxGeometry x="830" y="40" width="30" height="60" as="geometry" />
        </mxCell>
        <mxCell id="bF0VFyv6rNyYzEHwLeg6-10" style="edgeStyle=orthogonalEdgeStyle;rounded=0;orthogonalLoop=1;jettySize=auto;html=1;curved=0;" edge="1" parent="1" source="bF0VFyv6rNyYzEHwLeg6-8" target="aM9ryv3xv72pqoxQDRHE-1">
          <mxGeometry relative="1" as="geometry">
            <mxPoint x="340" y="180" as="targetPoint" />
            <Array as="points">
              <mxPoint x="180" y="190" />
              <mxPoint x="180" y="190" />
            </Array>
          </mxGeometry>
        </mxCell>
        <mxCell id="bF0VFyv6rNyYzEHwLeg6-11" value="Inicia sesión (email, contraseña)" style="edgeLabel;html=1;align=center;verticalAlign=middle;resizable=0;points=[];" vertex="1" connectable="0" parent="bF0VFyv6rNyYzEHwLeg6-10">
          <mxGeometry x="0.0078" y="2" relative="1" as="geometry">
            <mxPoint x="-13" y="-8" as="offset" />
          </mxGeometry>
        </mxCell>
        <mxCell id="bF0VFyv6rNyYzEHwLeg6-8" value="" style="html=1;points=[[0,0,0,0,5],[0,1,0,0,-5],[1,0,0,0,5],[1,1,0,0,-5]];perimeter=orthogonalPerimeter;outlineConnect=0;targetShapes=umlLifeline;portConstraint=eastwest;newEdgeStyle={&quot;curved&quot;:0,&quot;rounded&quot;:0};fillColor=light-dark(#FFFFFF,#999999);" vertex="1" parent="1">
          <mxGeometry x="120" y="170" width="10" height="210" as="geometry" />
        </mxCell>
        <mxCell id="bF0VFyv6rNyYzEHwLeg6-14" style="edgeStyle=orthogonalEdgeStyle;rounded=0;orthogonalLoop=1;jettySize=auto;html=1;curved=0;" edge="1" parent="1" source="bF0VFyv6rNyYzEHwLeg6-13" target="aM9ryv3xv72pqoxQDRHE-5">
          <mxGeometry relative="1" as="geometry">
            <mxPoint x="570" y="220" as="targetPoint" />
            <Array as="points">
              <mxPoint x="560" y="210" />
              <mxPoint x="560" y="210" />
            </Array>
          </mxGeometry>
        </mxCell>
        <mxCell id="bF0VFyv6rNyYzEHwLeg6-16" value="Validar credenciales" style="edgeLabel;html=1;align=center;verticalAlign=middle;resizable=0;points=[];" vertex="1" connectable="0" parent="bF0VFyv6rNyYzEHwLeg6-14">
          <mxGeometry x="-0.0092" y="-2" relative="1" as="geometry">
            <mxPoint y="-12" as="offset" />
          </mxGeometry>
        </mxCell>
        <mxCell id="bF0VFyv6rNyYzEHwLeg6-17" value="" style="html=1;points=[[0,0,0,0,5],[0,1,0,0,-5],[1,0,0,0,5],[1,1,0,0,-5]];perimeter=orthogonalPerimeter;outlineConnect=0;targetShapes=umlLifeline;portConstraint=eastwest;newEdgeStyle={&quot;curved&quot;:0,&quot;rounded&quot;:0};fillColor=light-dark(#FFFFFF,#999999);" vertex="1" parent="1">
          <mxGeometry x="120" y="430" width="10" height="170" as="geometry" />
        </mxCell>
        <mxCell id="bF0VFyv6rNyYzEHwLeg6-18" value="" style="endArrow=classic;html=1;rounded=0;" edge="1" parent="1">
          <mxGeometry width="50" height="50" relative="1" as="geometry">
            <mxPoint x="629.5" y="230" as="sourcePoint" />
            <mxPoint x="629.5" y="280" as="targetPoint" />
            <Array as="points">
              <mxPoint x="710" y="230" />
              <mxPoint x="710" y="280" />
            </Array>
          </mxGeometry>
        </mxCell>
        <mxCell id="bF0VFyv6rNyYzEHwLeg6-20" value="consultar Usuario" style="text;html=1;align=center;verticalAlign=middle;resizable=0;points=[];autosize=1;strokeColor=none;fillColor=none;" vertex="1" parent="1">
          <mxGeometry x="640" y="200" width="120" height="30" as="geometry" />
        </mxCell>
        <mxCell id="bF0VFyv6rNyYzEHwLeg6-21" value="" style="edgeStyle=none;orthogonalLoop=1;jettySize=auto;html=1;rounded=0;exitX=0;exitY=1;exitDx=0;exitDy=-5;exitPerimeter=0;dashed=1;dashPattern=8 8;" edge="1" parent="1" source="bF0VFyv6rNyYzEHwLeg6-15" target="aM9ryv3xv72pqoxQDRHE-1">
          <mxGeometry width="100" relative="1" as="geometry">
            <mxPoint x="450" y="300" as="sourcePoint" />
            <mxPoint x="550" y="300" as="targetPoint" />
            <Array as="points" />
          </mxGeometry>
        </mxCell>
        <mxCell id="bF0VFyv6rNyYzEHwLeg6-22" value="credenciales validadas" style="text;html=1;align=center;verticalAlign=middle;resizable=0;points=[];autosize=1;strokeColor=none;fillColor=none;" vertex="1" parent="1">
          <mxGeometry x="430" y="300" width="140" height="30" as="geometry" />
        </mxCell>
        <mxCell id="bF0VFyv6rNyYzEHwLeg6-23" style="edgeStyle=orthogonalEdgeStyle;rounded=0;orthogonalLoop=1;jettySize=auto;html=1;curved=0;exitX=0;exitY=1;exitDx=0;exitDy=-5;exitPerimeter=0;entryX=1;entryY=1;entryDx=0;entryDy=-5;entryPerimeter=0;dashed=1;dashPattern=8 8;" edge="1" parent="1" source="bF0VFyv6rNyYzEHwLeg6-13" target="bF0VFyv6rNyYzEHwLeg6-8">
          <mxGeometry relative="1" as="geometry" />
        </mxCell>
        <mxCell id="bF0VFyv6rNyYzEHwLeg6-24" value="sesión iniciada" style="text;html=1;align=center;verticalAlign=middle;resizable=0;points=[];autosize=1;strokeColor=none;fillColor=none;" vertex="1" parent="1">
          <mxGeometry x="190" y="348" width="100" height="30" as="geometry" />
        </mxCell>
        <mxCell id="bF0VFyv6rNyYzEHwLeg6-28" value="" style="edgeStyle=none;orthogonalLoop=1;jettySize=auto;html=1;rounded=0;entryX=0.88;entryY=0.208;entryDx=0;entryDy=0;entryPerimeter=0;" edge="1" parent="1" source="bF0VFyv6rNyYzEHwLeg6-17" target="bF0VFyv6rNyYzEHwLeg6-27">
          <mxGeometry width="100" relative="1" as="geometry">
            <mxPoint x="190" y="450" as="sourcePoint" />
            <mxPoint x="290" y="450" as="targetPoint" />
            <Array as="points" />
          </mxGeometry>
        </mxCell>
        <mxCell id="bF0VFyv6rNyYzEHwLeg6-29" value="solicita ver canchas disponibles" style="text;html=1;align=center;verticalAlign=middle;resizable=0;points=[];autosize=1;strokeColor=none;fillColor=none;" vertex="1" parent="1">
          <mxGeometry x="145" y="430" width="190" height="30" as="geometry" />
        </mxCell>
        <mxCell id="bF0VFyv6rNyYzEHwLeg6-31" value="" style="edgeStyle=none;orthogonalLoop=1;jettySize=auto;html=1;rounded=0;" edge="1" parent="1" source="bF0VFyv6rNyYzEHwLeg6-27" target="aM9ryv3xv72pqoxQDRHE-5">
          <mxGeometry width="100" relative="1" as="geometry">
            <mxPoint x="440" y="480" as="sourcePoint" />
            <mxPoint x="540" y="480" as="targetPoint" />
            <Array as="points" />
          </mxGeometry>
        </mxCell>
        <mxCell id="bF0VFyv6rNyYzEHwLeg6-32" value="consultar disponibilidad (fecha, hora)" style="text;html=1;align=center;verticalAlign=middle;resizable=0;points=[];autosize=1;strokeColor=none;fillColor=none;" vertex="1" parent="1">
          <mxGeometry x="390" y="470" width="220" height="30" as="geometry" />
        </mxCell>
        <mxCell id="bF0VFyv6rNyYzEHwLeg6-33" value="" style="edgeStyle=none;orthogonalLoop=1;jettySize=auto;html=1;rounded=0;dashed=1;dashPattern=8 8;" edge="1" parent="1">
          <mxGeometry width="100" relative="1" as="geometry">
            <mxPoint x="627.5" y="549" as="sourcePoint" />
            <mxPoint x="372.5" y="549" as="targetPoint" />
            <Array as="points" />
          </mxGeometry>
        </mxCell>
        <mxCell id="bF0VFyv6rNyYzEHwLeg6-34" value="canchas disponibles" style="text;html=1;align=center;verticalAlign=middle;resizable=0;points=[];autosize=1;strokeColor=none;fillColor=none;" vertex="1" parent="1">
          <mxGeometry x="430" y="520" width="130" height="30" as="geometry" />
        </mxCell>
        <mxCell id="bF0VFyv6rNyYzEHwLeg6-36" value="" style="edgeStyle=none;orthogonalLoop=1;jettySize=auto;html=1;rounded=0;dashed=1;dashPattern=8 8;" edge="1" parent="1" target="bF0VFyv6rNyYzEHwLeg6-17">
          <mxGeometry width="100" relative="1" as="geometry">
            <mxPoint x="374.5" y="570" as="sourcePoint" />
            <mxPoint x="140" y="570" as="targetPoint" />
            <Array as="points" />
          </mxGeometry>
        </mxCell>
        <mxCell id="bF0VFyv6rNyYzEHwLeg6-37" value="Muestra canchas disponibles" style="text;html=1;align=center;verticalAlign=middle;resizable=0;points=[];autosize=1;strokeColor=none;fillColor=none;" vertex="1" parent="1">
          <mxGeometry x="150" y="538" width="180" height="30" as="geometry" />
        </mxCell>
        <mxCell id="bF0VFyv6rNyYzEHwLeg6-38" value="" style="edgeStyle=none;orthogonalLoop=1;jettySize=auto;html=1;rounded=0;" edge="1" parent="1" target="aM9ryv3xv72pqoxQDRHE-1">
          <mxGeometry width="100" relative="1" as="geometry">
            <mxPoint x="130" y="720" as="sourcePoint" />
            <mxPoint x="260" y="720" as="targetPoint" />
            <Array as="points" />
          </mxGeometry>
        </mxCell>
        <mxCell id="bF0VFyv6rNyYzEHwLeg6-39" value="selecciona cancha y horario" style="text;html=1;align=center;verticalAlign=middle;resizable=0;points=[];autosize=1;strokeColor=none;fillColor=none;" vertex="1" parent="1">
          <mxGeometry x="155" y="690" width="170" height="30" as="geometry" />
        </mxCell>
        <mxCell id="bF0VFyv6rNyYzEHwLeg6-40" value="" style="edgeStyle=none;orthogonalLoop=1;jettySize=auto;html=1;rounded=0;" edge="1" parent="1">
          <mxGeometry width="100" relative="1" as="geometry">
            <mxPoint x="374.5" y="760" as="sourcePoint" />
            <mxPoint x="629.5" y="760" as="targetPoint" />
            <Array as="points" />
          </mxGeometry>
        </mxCell>
        <mxCell id="bF0VFyv6rNyYzEHwLeg6-41" value="verifica disponibilidad" style="text;html=1;align=center;verticalAlign=middle;resizable=0;points=[];autosize=1;strokeColor=none;fillColor=none;" vertex="1" parent="1">
          <mxGeometry x="430" y="730" width="140" height="30" as="geometry" />
        </mxCell>
        <mxCell id="bF0VFyv6rNyYzEHwLeg6-43" value="[Cancha Disponible]" style="text;html=1;align=center;verticalAlign=middle;resizable=0;points=[];autosize=1;strokeColor=none;fillColor=none;" vertex="1" parent="1">
          <mxGeometry x="430" y="770" width="130" height="30" as="geometry" />
        </mxCell>
        <mxCell id="bF0VFyv6rNyYzEHwLeg6-46" value="" style="edgeStyle=none;orthogonalLoop=1;jettySize=auto;html=1;rounded=0;dashed=1;dashPattern=8 8;" edge="1" parent="1">
          <mxGeometry width="100" relative="1" as="geometry">
            <mxPoint x="627.5864705882353" y="860" as="sourcePoint" />
            <mxPoint x="372.40999999999997" y="860" as="targetPoint" />
            <Array as="points" />
          </mxGeometry>
        </mxCell>
        <mxCell id="bF0VFyv6rNyYzEHwLeg6-47" value="confirma disponibilidad" style="text;html=1;align=center;verticalAlign=middle;resizable=0;points=[];autosize=1;strokeColor=none;fillColor=none;" vertex="1" parent="1">
          <mxGeometry x="415" y="828" width="150" height="30" as="geometry" />
        </mxCell>
        <mxCell id="bF0VFyv6rNyYzEHwLeg6-49" value="Solicitud reserva (Estado: pendiente)" style="text;html=1;align=center;verticalAlign=middle;resizable=0;points=[];autosize=1;strokeColor=none;fillColor=none;" vertex="1" parent="1">
          <mxGeometry x="390" y="900" width="220" height="30" as="geometry" />
        </mxCell>
        <mxCell id="bF0VFyv6rNyYzEHwLeg6-50" value="" style="edgeStyle=none;orthogonalLoop=1;jettySize=auto;html=1;rounded=0;dashed=1;dashPattern=8 8;" edge="1" parent="1">
          <mxGeometry width="100" relative="1" as="geometry">
            <mxPoint x="627.5864705882353" y="980" as="sourcePoint" />
            <mxPoint x="372.40999999999997" y="980" as="targetPoint" />
            <Array as="points" />
          </mxGeometry>
        </mxCell>
        <mxCell id="bF0VFyv6rNyYzEHwLeg6-51" value="Solicitud creada" style="text;html=1;align=center;verticalAlign=middle;resizable=0;points=[];autosize=1;strokeColor=none;fillColor=none;" vertex="1" parent="1">
          <mxGeometry x="440" y="950" width="110" height="30" as="geometry" />
        </mxCell>
        <mxCell id="bF0VFyv6rNyYzEHwLeg6-52" value="" style="edgeStyle=none;orthogonalLoop=1;jettySize=auto;html=1;rounded=0;dashed=1;dashPattern=8 8;" edge="1" parent="1">
          <mxGeometry width="100" relative="1" as="geometry">
            <mxPoint x="375.17647058823536" y="1020" as="sourcePoint" />
            <mxPoint x="120" y="1020" as="targetPoint" />
            <Array as="points" />
          </mxGeometry>
        </mxCell>
        <mxCell id="bF0VFyv6rNyYzEHwLeg6-53" value="Solicitud enviada - esperando aprobación" style="text;html=1;align=center;verticalAlign=middle;resizable=0;points=[];autosize=1;strokeColor=none;fillColor=none;" vertex="1" parent="1">
          <mxGeometry x="135" y="990" width="240" height="30" as="geometry" />
        </mxCell>
        <mxCell id="bF0VFyv6rNyYzEHwLeg6-54" value="" style="edgeStyle=none;orthogonalLoop=1;jettySize=auto;html=1;rounded=0;" edge="1" parent="1">
          <mxGeometry width="100" relative="1" as="geometry">
            <mxPoint x="375" y="1090" as="sourcePoint" />
            <mxPoint x="840" y="1090" as="targetPoint" />
            <Array as="points" />
          </mxGeometry>
        </mxCell>
        <mxCell id="bF0VFyv6rNyYzEHwLeg6-55" value="Notificación de nueva solicitud" style="text;html=1;align=center;verticalAlign=middle;resizable=0;points=[];autosize=1;strokeColor=none;fillColor=none;" vertex="1" parent="1">
          <mxGeometry x="540" y="1060" width="180" height="30" as="geometry" />
        </mxCell>
        <mxCell id="bF0VFyv6rNyYzEHwLeg6-56" value="" style="edgeStyle=none;orthogonalLoop=1;jettySize=auto;html=1;rounded=0;" edge="1" parent="1">
          <mxGeometry width="100" relative="1" as="geometry">
            <mxPoint x="845.3" y="1130" as="sourcePoint" />
            <mxPoint x="380.00000000000006" y="1130" as="targetPoint" />
            <Array as="points" />
          </mxGeometry>
        </mxCell>
        <mxCell id="bF0VFyv6rNyYzEHwLeg6-57" value="Revisa solicitud" style="text;html=1;align=center;verticalAlign=middle;resizable=0;points=[];autosize=1;strokeColor=none;fillColor=none;" vertex="1" parent="1">
          <mxGeometry x="575" y="1100" width="110" height="30" as="geometry" />
        </mxCell>
        <mxCell id="bF0VFyv6rNyYzEHwLeg6-58" value="ALT" style="shape=umlFrame;whiteSpace=wrap;html=1;pointerEvents=0;" vertex="1" parent="1">
          <mxGeometry x="110" y="1150" width="760" height="510" as="geometry" />
        </mxCell>
        <mxCell id="bF0VFyv6rNyYzEHwLeg6-59" value="[Dueño confirma]" style="text;html=1;align=center;verticalAlign=middle;resizable=0;points=[];autosize=1;strokeColor=none;fillColor=none;" vertex="1" parent="1">
          <mxGeometry x="455" y="1148" width="110" height="30" as="geometry" />
        </mxCell>
        <mxCell id="bF0VFyv6rNyYzEHwLeg6-60" value="" style="edgeStyle=none;orthogonalLoop=1;jettySize=auto;html=1;rounded=0;" edge="1" parent="1">
          <mxGeometry width="100" relative="1" as="geometry">
            <mxPoint x="840" y="1200" as="sourcePoint" />
            <mxPoint x="379.70000000000005" y="1200" as="targetPoint" />
            <Array as="points" />
          </mxGeometry>
        </mxCell>
        <mxCell id="bF0VFyv6rNyYzEHwLeg6-61" value="Confirma reserva" style="text;html=1;align=center;verticalAlign=middle;resizable=0;points=[];autosize=1;strokeColor=none;fillColor=none;" vertex="1" parent="1">
          <mxGeometry x="570" y="1170" width="120" height="30" as="geometry" />
        </mxCell>
        <mxCell id="bF0VFyv6rNyYzEHwLeg6-62" value="" style="edgeStyle=none;orthogonalLoop=1;jettySize=auto;html=1;rounded=0;" edge="1" parent="1">
          <mxGeometry width="100" relative="1" as="geometry">
            <mxPoint x="375.0035294117646" y="1260" as="sourcePoint" />
            <mxPoint x="630.1800000000001" y="1260" as="targetPoint" />
            <Array as="points" />
          </mxGeometry>
        </mxCell>
        <mxCell id="bF0VFyv6rNyYzEHwLeg6-63" value="Actualizacón de estado a &quot;confirmada&quot;" style="text;html=1;align=center;verticalAlign=middle;resizable=0;points=[];autosize=1;strokeColor=none;fillColor=none;" vertex="1" parent="1">
          <mxGeometry x="385" y="1228" width="230" height="30" as="geometry" />
        </mxCell>
        <mxCell id="bF0VFyv6rNyYzEHwLeg6-64" value="" style="edgeStyle=none;orthogonalLoop=1;jettySize=auto;html=1;rounded=0;dashed=1;dashPattern=8 8;" edge="1" parent="1">
          <mxGeometry width="100" relative="1" as="geometry">
            <mxPoint x="630.1764705882354" y="1320" as="sourcePoint" />
            <mxPoint x="375" y="1320" as="targetPoint" />
            <Array as="points" />
          </mxGeometry>
        </mxCell>
        <mxCell id="bF0VFyv6rNyYzEHwLeg6-65" value="Reserva confirmada" style="text;html=1;align=center;verticalAlign=middle;resizable=0;points=[];autosize=1;strokeColor=none;fillColor=none;" vertex="1" parent="1">
          <mxGeometry x="435" y="1290" width="130" height="30" as="geometry" />
        </mxCell>
        <mxCell id="bF0VFyv6rNyYzEHwLeg6-66" value="" style="edgeStyle=none;orthogonalLoop=1;jettySize=auto;html=1;rounded=0;dashed=1;dashPattern=8 8;" edge="1" parent="1">
          <mxGeometry width="100" relative="1" as="geometry">
            <mxPoint x="375.17647058823536" y="1370" as="sourcePoint" />
            <mxPoint x="130" y="1370" as="targetPoint" />
            <Array as="points" />
          </mxGeometry>
        </mxCell>
        <mxCell id="bF0VFyv6rNyYzEHwLeg6-67" value="Notificación - Reserva confirmada" style="text;html=1;align=center;verticalAlign=middle;resizable=0;points=[];autosize=1;strokeColor=none;fillColor=none;" vertex="1" parent="1">
          <mxGeometry x="145" y="1340" width="200" height="30" as="geometry" />
        </mxCell>
        <mxCell id="bF0VFyv6rNyYzEHwLeg6-68" value="" style="line;strokeWidth=1;fillColor=none;align=left;verticalAlign=middle;spacingTop=-1;spacingLeft=3;spacingRight=3;rotatable=0;labelPosition=right;points=[];portConstraint=eastwest;strokeColor=inherit;" vertex="1" parent="1">
          <mxGeometry x="110" y="1400" width="760" height="8" as="geometry" />
        </mxCell>
        <mxCell id="bF0VFyv6rNyYzEHwLeg6-70" value="[Dueño rechaza]" style="text;html=1;align=center;verticalAlign=middle;resizable=0;points=[];autosize=1;strokeColor=none;fillColor=none;" vertex="1" parent="1">
          <mxGeometry x="455" y="1408" width="110" height="30" as="geometry" />
        </mxCell>
        <mxCell id="bF0VFyv6rNyYzEHwLeg6-71" value="" style="edgeStyle=none;orthogonalLoop=1;jettySize=auto;html=1;rounded=0;" edge="1" parent="1">
          <mxGeometry width="100" relative="1" as="geometry">
            <mxPoint x="841.1764705882354" y="1468.41" as="sourcePoint" />
            <mxPoint x="380" y="1468" as="targetPoint" />
            <Array as="points" />
          </mxGeometry>
        </mxCell>
        <mxCell id="bF0VFyv6rNyYzEHwLeg6-72" value="Rechaza reserva" style="text;html=1;align=center;verticalAlign=middle;resizable=0;points=[];autosize=1;strokeColor=none;fillColor=none;" vertex="1" parent="1">
          <mxGeometry x="575" y="1438" width="110" height="30" as="geometry" />
        </mxCell>
        <mxCell id="bF0VFyv6rNyYzEHwLeg6-73" value="" style="edgeStyle=none;orthogonalLoop=1;jettySize=auto;html=1;rounded=0;" edge="1" parent="1">
          <mxGeometry width="100" relative="1" as="geometry">
            <mxPoint x="375.0035294117646" y="1528" as="sourcePoint" />
            <mxPoint x="630.1800000000001" y="1528" as="targetPoint" />
            <Array as="points" />
          </mxGeometry>
        </mxCell>
        <mxCell id="bF0VFyv6rNyYzEHwLeg6-74" value="Actualizacón de estado a &quot;rechazada&quot;" style="text;html=1;align=center;verticalAlign=middle;resizable=0;points=[];autosize=1;strokeColor=none;fillColor=none;" vertex="1" parent="1">
          <mxGeometry x="385" y="1496" width="230" height="30" as="geometry" />
        </mxCell>
        <mxCell id="bF0VFyv6rNyYzEHwLeg6-75" value="" style="edgeStyle=none;orthogonalLoop=1;jettySize=auto;html=1;rounded=0;dashed=1;dashPattern=8 8;" edge="1" parent="1">
          <mxGeometry width="100" relative="1" as="geometry">
            <mxPoint x="630.1764705882354" y="1588" as="sourcePoint" />
            <mxPoint x="375" y="1588" as="targetPoint" />
            <Array as="points" />
          </mxGeometry>
        </mxCell>
        <mxCell id="bF0VFyv6rNyYzEHwLeg6-76" value="Reserva rechazada" style="text;html=1;align=center;verticalAlign=middle;resizable=0;points=[];autosize=1;strokeColor=none;fillColor=none;" vertex="1" parent="1">
          <mxGeometry x="435" y="1558" width="130" height="30" as="geometry" />
        </mxCell>
        <mxCell id="bF0VFyv6rNyYzEHwLeg6-77" value="" style="edgeStyle=none;orthogonalLoop=1;jettySize=auto;html=1;rounded=0;dashed=1;dashPattern=8 8;" edge="1" parent="1">
          <mxGeometry width="100" relative="1" as="geometry">
            <mxPoint x="375.17647058823536" y="1638" as="sourcePoint" />
            <mxPoint x="130" y="1638" as="targetPoint" />
            <Array as="points" />
          </mxGeometry>
        </mxCell>
        <mxCell id="bF0VFyv6rNyYzEHwLeg6-78" value="Notificación - Reserva rechazada" style="text;html=1;align=center;verticalAlign=middle;resizable=0;points=[];autosize=1;strokeColor=none;fillColor=none;" vertex="1" parent="1">
          <mxGeometry x="145" y="1608" width="200" height="30" as="geometry" />
        </mxCell>
        <mxCell id="bF0VFyv6rNyYzEHwLeg6-79" value="" style="line;strokeWidth=1;fillColor=none;align=left;verticalAlign=middle;spacingTop=-1;spacingLeft=3;spacingRight=3;rotatable=0;labelPosition=right;points=[];portConstraint=eastwest;strokeColor=inherit;" vertex="1" parent="1">
          <mxGeometry x="90" y="1710" width="800" height="8" as="geometry" />
        </mxCell>
        <mxCell id="bF0VFyv6rNyYzEHwLeg6-80" value="[Cancha no disponible]" style="text;html=1;align=center;verticalAlign=middle;resizable=0;points=[];autosize=1;strokeColor=none;fillColor=none;" vertex="1" parent="1">
          <mxGeometry x="430" y="1718" width="150" height="30" as="geometry" />
        </mxCell>
        <mxCell id="bF0VFyv6rNyYzEHwLeg6-81" value="Cancha ya reservada" style="text;html=1;align=center;verticalAlign=middle;resizable=0;points=[];autosize=1;strokeColor=none;fillColor=none;" vertex="1" parent="1">
          <mxGeometry x="430" y="1770" width="140" height="30" as="geometry" />
        </mxCell>
        <mxCell id="bF0VFyv6rNyYzEHwLeg6-82" value="" style="edgeStyle=none;orthogonalLoop=1;jettySize=auto;html=1;rounded=0;shadow=0;dashed=1;dashPattern=8 8;" edge="1" parent="1">
          <mxGeometry width="100" relative="1" as="geometry">
            <mxPoint x="630.1764705882354" y="1800" as="sourcePoint" />
            <mxPoint x="375" y="1800" as="targetPoint" />
            <Array as="points" />
          </mxGeometry>
        </mxCell>
        <mxCell id="bF0VFyv6rNyYzEHwLeg6-83" value="" style="edgeStyle=none;orthogonalLoop=1;jettySize=auto;html=1;rounded=0;shadow=0;dashed=1;dashPattern=8 8;" edge="1" parent="1">
          <mxGeometry width="100" relative="1" as="geometry">
            <mxPoint x="375.17647058823536" y="1850" as="sourcePoint" />
            <mxPoint x="120" y="1850" as="targetPoint" />
            <Array as="points" />
          </mxGeometry>
        </mxCell>
        <mxCell id="bF0VFyv6rNyYzEHwLeg6-84" value="Error - Cancha no disponible" style="text;html=1;align=center;verticalAlign=middle;resizable=0;points=[];autosize=1;strokeColor=none;fillColor=none;" vertex="1" parent="1">
          <mxGeometry x="155" y="1820" width="180" height="30" as="geometry" />
        </mxCell>
        <mxCell id="bF0VFyv6rNyYzEHwLeg6-85" value="Usuario" style="shape=umlActor;verticalLabelPosition=bottom;verticalAlign=top;html=1;" vertex="1" parent="1">
          <mxGeometry x="110" y="2040" width="30" height="60" as="geometry" />
        </mxCell>
        <mxCell id="bF0VFyv6rNyYzEHwLeg6-86" value="Sistema CanchApp" style="html=1;whiteSpace=wrap;" vertex="1" parent="1">
          <mxGeometry x="320" y="2040" width="110" height="50" as="geometry" />
        </mxCell>
        <mxCell id="bF0VFyv6rNyYzEHwLeg6-87" value="BDD" style="html=1;whiteSpace=wrap;" vertex="1" parent="1">
          <mxGeometry x="575" y="2040" width="110" height="50" as="geometry" />
        </mxCell>
        <mxCell id="bF0VFyv6rNyYzEHwLeg6-88" value="Dueño" style="shape=umlActor;verticalLabelPosition=bottom;verticalAlign=top;html=1;" vertex="1" parent="1">
          <mxGeometry x="830" y="2040" width="30" height="60" as="geometry" />
        </mxCell>
        <mxCell id="bF0VFyv6rNyYzEHwLeg6-42" value="ALT" style="shape=umlFrame;whiteSpace=wrap;html=1;pointerEvents=0;noLabel=0;" vertex="1" parent="1">
          <mxGeometry x="90" y="770" width="800" height="1160" as="geometry" />
        </mxCell>
        <mxCell id="bF0VFyv6rNyYzEHwLeg6-96" value="" style="html=1;points=[[0,0,0,0,5],[0,1,0,0,-5],[1,0,0,0,5],[1,1,0,0,-5]];perimeter=orthogonalPerimeter;outlineConnect=0;targetShapes=umlLifeline;portConstraint=eastwest;newEdgeStyle={&quot;curved&quot;:0,&quot;rounded&quot;:0};fillColor=light-dark(#FFFFFF,#999999);" vertex="1" parent="1">
          <mxGeometry x="840" y="1080" width="10" height="20" as="geometry" />
        </mxCell>
        <mxCell id="bF0VFyv6rNyYzEHwLeg6-97" value="" style="html=1;points=[[0,0,0,0,5],[0,1,0,0,-5],[1,0,0,0,5],[1,1,0,0,-5]];perimeter=orthogonalPerimeter;outlineConnect=0;targetShapes=umlLifeline;portConstraint=eastwest;newEdgeStyle={&quot;curved&quot;:0,&quot;rounded&quot;:0};fillColor=light-dark(#FFFFFF,#999999);" vertex="1" parent="1">
          <mxGeometry x="840" y="1120" width="10" height="20" as="geometry" />
        </mxCell>
        <mxCell id="bF0VFyv6rNyYzEHwLeg6-98" value="" style="html=1;points=[[0,0,0,0,5],[0,1,0,0,-5],[1,0,0,0,5],[1,1,0,0,-5]];perimeter=orthogonalPerimeter;outlineConnect=0;targetShapes=umlLifeline;portConstraint=eastwest;newEdgeStyle={&quot;curved&quot;:0,&quot;rounded&quot;:0};fillColor=light-dark(#FFFFFF,#999999);" vertex="1" parent="1">
          <mxGeometry x="840" y="1190" width="10" height="20" as="geometry" />
        </mxCell>
        <mxCell id="bF0VFyv6rNyYzEHwLeg6-99" value="" style="html=1;points=[[0,0,0,0,5],[0,1,0,0,-5],[1,0,0,0,5],[1,1,0,0,-5]];perimeter=orthogonalPerimeter;outlineConnect=0;targetShapes=umlLifeline;portConstraint=eastwest;newEdgeStyle={&quot;curved&quot;:0,&quot;rounded&quot;:0};fillColor=light-dark(#FFFFFF,#999999);" vertex="1" parent="1">
          <mxGeometry x="840" y="1460" width="10" height="20" as="geometry" />
        </mxCell>
      </root>
    </mxGraphModel>
  </diagram>
</mxfile>
